<mxfile host="app.diagrams.net" agent="Mozilla/5.0 (Windows NT 10.0; Win64; x64) AppleWebKit/537.36 (KHTML, like Gecko) Chrome/130.0.0.0 YaBrowser/24.12.0.0 Safari/537.36" version="25.0.3">
  <diagram id="NTyWeSotmfnSPhq0FN5V" name="Страница — 1">
    <mxGraphModel dx="1290" dy="1736" grid="1" gridSize="10" guides="1" tooltips="1" connect="1" arrows="1" fold="1" page="1" pageScale="1" pageWidth="827" pageHeight="1169" math="0" shadow="0">
      <root>
        <mxCell id="0" />
        <mxCell id="1" parent="0" />
        <mxCell id="mmSBYy4YNqLgO61rvtRM-5" style="edgeStyle=orthogonalEdgeStyle;rounded=0;orthogonalLoop=1;jettySize=auto;html=1;" parent="1" source="mmSBYy4YNqLgO61rvtRM-1" target="mmSBYy4YNqLgO61rvtRM-3" edge="1">
          <mxGeometry relative="1" as="geometry" />
        </mxCell>
        <mxCell id="mmSBYy4YNqLgO61rvtRM-1" value="Начало" style="ellipse;whiteSpace=wrap;html=1;" parent="1" vertex="1">
          <mxGeometry x="170" y="-50" width="150" height="60" as="geometry" />
        </mxCell>
        <mxCell id="mmSBYy4YNqLgO61rvtRM-2" value="Конец" style="ellipse;whiteSpace=wrap;html=1;" parent="1" vertex="1">
          <mxGeometry x="170" y="1320" width="150" height="60" as="geometry" />
        </mxCell>
        <mxCell id="mmSBYy4YNqLgO61rvtRM-49" style="edgeStyle=orthogonalEdgeStyle;rounded=0;orthogonalLoop=1;jettySize=auto;html=1;" parent="1" source="mmSBYy4YNqLgO61rvtRM-3" target="mmSBYy4YNqLgO61rvtRM-48" edge="1">
          <mxGeometry relative="1" as="geometry" />
        </mxCell>
        <mxCell id="mmSBYy4YNqLgO61rvtRM-3" value="Ввод строк a и&lt;span style=&quot;background-color: initial;&quot;&gt;&amp;nbsp;b&lt;/span&gt;" style="shape=parallelogram;perimeter=parallelogramPerimeter;whiteSpace=wrap;html=1;fixedSize=1;" parent="1" vertex="1">
          <mxGeometry x="165" y="30" width="160" height="50" as="geometry" />
        </mxCell>
        <mxCell id="mmSBYy4YNqLgO61rvtRM-12" style="edgeStyle=orthogonalEdgeStyle;rounded=0;orthogonalLoop=1;jettySize=auto;html=1;" parent="1" source="mmSBYy4YNqLgO61rvtRM-4" target="mmSBYy4YNqLgO61rvtRM-11" edge="1">
          <mxGeometry relative="1" as="geometry" />
        </mxCell>
        <mxCell id="mmSBYy4YNqLgO61rvtRM-4" value="i := 0;" style="rounded=0;whiteSpace=wrap;html=1;" parent="1" vertex="1">
          <mxGeometry x="175" y="260" width="140" height="60" as="geometry" />
        </mxCell>
        <mxCell id="mmSBYy4YNqLgO61rvtRM-21" style="edgeStyle=orthogonalEdgeStyle;rounded=0;orthogonalLoop=1;jettySize=auto;html=1;" parent="1" source="mmSBYy4YNqLgO61rvtRM-6" target="mmSBYy4YNqLgO61rvtRM-4" edge="1">
          <mxGeometry relative="1" as="geometry" />
        </mxCell>
        <mxCell id="mmSBYy4YNqLgO61rvtRM-47" style="edgeStyle=orthogonalEdgeStyle;rounded=0;orthogonalLoop=1;jettySize=auto;html=1;" parent="1" source="mmSBYy4YNqLgO61rvtRM-6" edge="1">
          <mxGeometry relative="1" as="geometry">
            <mxPoint x="245" y="1140" as="targetPoint" />
            <Array as="points">
              <mxPoint x="370" y="210" />
              <mxPoint x="370" y="1140" />
              <mxPoint x="245" y="1140" />
            </Array>
          </mxGeometry>
        </mxCell>
        <mxCell id="mmSBYy4YNqLgO61rvtRM-6" value="length(b) &amp;lt;= length(a)" style="rhombus;whiteSpace=wrap;html=1;" parent="1" vertex="1">
          <mxGeometry x="175" y="180" width="140" height="60" as="geometry" />
        </mxCell>
        <mxCell id="mmSBYy4YNqLgO61rvtRM-38" style="edgeStyle=orthogonalEdgeStyle;rounded=0;orthogonalLoop=1;jettySize=auto;html=1;" parent="1" source="mmSBYy4YNqLgO61rvtRM-8" edge="1">
          <mxGeometry relative="1" as="geometry">
            <mxPoint x="245" y="1300" as="targetPoint" />
            <Array as="points">
              <mxPoint x="419" y="1300" />
              <mxPoint x="250" y="1300" />
            </Array>
          </mxGeometry>
        </mxCell>
        <mxCell id="mmSBYy4YNqLgO61rvtRM-8" value="Вывод &#39;b не является подстрокой a&#39;" style="shape=parallelogram;perimeter=parallelogramPerimeter;whiteSpace=wrap;html=1;fixedSize=1;" parent="1" vertex="1">
          <mxGeometry x="339" y="1220" width="160" height="50" as="geometry" />
        </mxCell>
        <mxCell id="mmSBYy4YNqLgO61rvtRM-14" style="edgeStyle=orthogonalEdgeStyle;rounded=0;orthogonalLoop=1;jettySize=auto;html=1;" parent="1" source="mmSBYy4YNqLgO61rvtRM-11" target="mmSBYy4YNqLgO61rvtRM-13" edge="1">
          <mxGeometry relative="1" as="geometry" />
        </mxCell>
        <mxCell id="mmSBYy4YNqLgO61rvtRM-11" value="Цикл 1&lt;div&gt;i &amp;gt; length(a) - length(b)&lt;/div&gt;" style="shape=loopLimit;whiteSpace=wrap;html=1;" parent="1" vertex="1">
          <mxGeometry x="175" y="340" width="140" height="60" as="geometry" />
        </mxCell>
        <mxCell id="mmSBYy4YNqLgO61rvtRM-16" style="edgeStyle=orthogonalEdgeStyle;rounded=0;orthogonalLoop=1;jettySize=auto;html=1;" parent="1" source="mmSBYy4YNqLgO61rvtRM-13" target="mmSBYy4YNqLgO61rvtRM-15" edge="1">
          <mxGeometry relative="1" as="geometry" />
        </mxCell>
        <mxCell id="mmSBYy4YNqLgO61rvtRM-13" value="found := True;&lt;div&gt;j := 1;&lt;/div&gt;" style="rounded=0;whiteSpace=wrap;html=1;" parent="1" vertex="1">
          <mxGeometry x="175" y="420" width="140" height="60" as="geometry" />
        </mxCell>
        <mxCell id="mmSBYy4YNqLgO61rvtRM-18" style="edgeStyle=orthogonalEdgeStyle;rounded=0;orthogonalLoop=1;jettySize=auto;html=1;" parent="1" source="mmSBYy4YNqLgO61rvtRM-15" target="mmSBYy4YNqLgO61rvtRM-17" edge="1">
          <mxGeometry relative="1" as="geometry" />
        </mxCell>
        <mxCell id="mmSBYy4YNqLgO61rvtRM-15" value="Цикл 1.1&lt;div&gt;j &amp;gt;&lt;span style=&quot;background-color: initial;&quot;&gt;&amp;nbsp;length(b)&lt;/span&gt;&lt;/div&gt;" style="shape=loopLimit;whiteSpace=wrap;html=1;" parent="1" vertex="1">
          <mxGeometry x="175" y="500" width="140" height="60" as="geometry" />
        </mxCell>
        <mxCell id="mmSBYy4YNqLgO61rvtRM-28" style="edgeStyle=orthogonalEdgeStyle;rounded=0;orthogonalLoop=1;jettySize=auto;html=1;" parent="1" source="mmSBYy4YNqLgO61rvtRM-17" edge="1">
          <mxGeometry relative="1" as="geometry">
            <mxPoint x="245" y="730" as="targetPoint" />
            <Array as="points">
              <mxPoint x="330" y="615" />
              <mxPoint x="330" y="730" />
            </Array>
          </mxGeometry>
        </mxCell>
        <mxCell id="mmSBYy4YNqLgO61rvtRM-85" style="edgeStyle=orthogonalEdgeStyle;rounded=0;orthogonalLoop=1;jettySize=auto;html=1;" parent="1" source="mmSBYy4YNqLgO61rvtRM-17" target="mmSBYy4YNqLgO61rvtRM-84" edge="1">
          <mxGeometry relative="1" as="geometry" />
        </mxCell>
        <mxCell id="mmSBYy4YNqLgO61rvtRM-17" value="a[ i + j - 1 ] &amp;lt;&amp;gt; b[ j ]" style="rhombus;whiteSpace=wrap;html=1;" parent="1" vertex="1">
          <mxGeometry x="175" y="585" width="140" height="60" as="geometry" />
        </mxCell>
        <mxCell id="mmSBYy4YNqLgO61rvtRM-23" style="edgeStyle=orthogonalEdgeStyle;rounded=0;orthogonalLoop=1;jettySize=auto;html=1;" parent="1" source="mmSBYy4YNqLgO61rvtRM-19" target="mmSBYy4YNqLgO61rvtRM-22" edge="1">
          <mxGeometry relative="1" as="geometry" />
        </mxCell>
        <mxCell id="mmSBYy4YNqLgO61rvtRM-19" value="j += 1;" style="rounded=0;whiteSpace=wrap;html=1;" parent="1" vertex="1">
          <mxGeometry x="175" y="740" width="140" height="60" as="geometry" />
        </mxCell>
        <mxCell id="mmSBYy4YNqLgO61rvtRM-25" style="edgeStyle=orthogonalEdgeStyle;rounded=0;orthogonalLoop=1;jettySize=auto;html=1;" parent="1" source="mmSBYy4YNqLgO61rvtRM-22" target="mmSBYy4YNqLgO61rvtRM-24" edge="1">
          <mxGeometry relative="1" as="geometry" />
        </mxCell>
        <mxCell id="mmSBYy4YNqLgO61rvtRM-22" value="Цикл 1.1" style="shape=loopLimit;whiteSpace=wrap;html=1;direction=west;" parent="1" vertex="1">
          <mxGeometry x="175" y="820" width="140" height="60" as="geometry" />
        </mxCell>
        <mxCell id="mmSBYy4YNqLgO61rvtRM-30" style="edgeStyle=orthogonalEdgeStyle;rounded=0;orthogonalLoop=1;jettySize=auto;html=1;exitX=1;exitY=0.5;exitDx=0;exitDy=0;" parent="1" source="mmSBYy4YNqLgO61rvtRM-24" edge="1">
          <mxGeometry relative="1" as="geometry">
            <mxPoint x="245" y="1050" as="targetPoint" />
            <Array as="points">
              <mxPoint x="340" y="930" />
              <mxPoint x="340" y="1050" />
            </Array>
          </mxGeometry>
        </mxCell>
        <mxCell id="mmSBYy4YNqLgO61rvtRM-88" style="edgeStyle=orthogonalEdgeStyle;rounded=0;orthogonalLoop=1;jettySize=auto;html=1;" parent="1" source="mmSBYy4YNqLgO61rvtRM-24" target="mmSBYy4YNqLgO61rvtRM-87" edge="1">
          <mxGeometry relative="1" as="geometry" />
        </mxCell>
        <mxCell id="mmSBYy4YNqLgO61rvtRM-24" value="found = True" style="rhombus;whiteSpace=wrap;html=1;" parent="1" vertex="1">
          <mxGeometry x="175" y="900" width="140" height="60" as="geometry" />
        </mxCell>
        <mxCell id="mmSBYy4YNqLgO61rvtRM-33" style="edgeStyle=orthogonalEdgeStyle;rounded=0;orthogonalLoop=1;jettySize=auto;html=1;" parent="1" source="mmSBYy4YNqLgO61rvtRM-26" target="mmSBYy4YNqLgO61rvtRM-32" edge="1">
          <mxGeometry relative="1" as="geometry" />
        </mxCell>
        <mxCell id="mmSBYy4YNqLgO61rvtRM-26" value="Цикл 1" style="shape=loopLimit;whiteSpace=wrap;html=1;direction=west;" parent="1" vertex="1">
          <mxGeometry x="175" y="1070" width="140" height="60" as="geometry" />
        </mxCell>
        <mxCell id="mmSBYy4YNqLgO61rvtRM-35" style="edgeStyle=orthogonalEdgeStyle;rounded=0;orthogonalLoop=1;jettySize=auto;html=1;" parent="1" source="mmSBYy4YNqLgO61rvtRM-32" target="mmSBYy4YNqLgO61rvtRM-34" edge="1">
          <mxGeometry relative="1" as="geometry" />
        </mxCell>
        <mxCell id="mmSBYy4YNqLgO61rvtRM-36" style="edgeStyle=orthogonalEdgeStyle;rounded=0;orthogonalLoop=1;jettySize=auto;html=1;" parent="1" source="mmSBYy4YNqLgO61rvtRM-32" target="mmSBYy4YNqLgO61rvtRM-8" edge="1">
          <mxGeometry relative="1" as="geometry" />
        </mxCell>
        <mxCell id="mmSBYy4YNqLgO61rvtRM-32" value="found = True" style="rhombus;whiteSpace=wrap;html=1;" parent="1" vertex="1">
          <mxGeometry x="175" y="1148" width="140" height="60" as="geometry" />
        </mxCell>
        <mxCell id="mmSBYy4YNqLgO61rvtRM-37" style="edgeStyle=orthogonalEdgeStyle;rounded=0;orthogonalLoop=1;jettySize=auto;html=1;" parent="1" source="mmSBYy4YNqLgO61rvtRM-34" target="mmSBYy4YNqLgO61rvtRM-2" edge="1">
          <mxGeometry relative="1" as="geometry" />
        </mxCell>
        <mxCell id="mmSBYy4YNqLgO61rvtRM-34" value="Вывод &#39;b является подстрокой a&#39;" style="shape=parallelogram;perimeter=parallelogramPerimeter;whiteSpace=wrap;html=1;fixedSize=1;" parent="1" vertex="1">
          <mxGeometry x="165" y="1230" width="160" height="50" as="geometry" />
        </mxCell>
        <mxCell id="mmSBYy4YNqLgO61rvtRM-39" value="да" style="text;html=1;align=center;verticalAlign=middle;whiteSpace=wrap;rounded=0;" parent="1" vertex="1">
          <mxGeometry x="227" y="1205" width="20" height="10" as="geometry" />
        </mxCell>
        <mxCell id="mmSBYy4YNqLgO61rvtRM-40" value="да" style="text;html=1;align=center;verticalAlign=middle;whiteSpace=wrap;rounded=0;" parent="1" vertex="1">
          <mxGeometry x="304" y="915" width="20" height="10" as="geometry" />
        </mxCell>
        <mxCell id="mmSBYy4YNqLgO61rvtRM-41" value="да" style="text;html=1;align=center;verticalAlign=middle;whiteSpace=wrap;rounded=0;" parent="1" vertex="1">
          <mxGeometry x="224" y="642" width="20" height="10" as="geometry" />
        </mxCell>
        <mxCell id="mmSBYy4YNqLgO61rvtRM-42" value="да" style="text;html=1;align=center;verticalAlign=middle;whiteSpace=wrap;rounded=0;" parent="1" vertex="1">
          <mxGeometry x="224" y="236" width="20" height="10" as="geometry" />
        </mxCell>
        <mxCell id="mmSBYy4YNqLgO61rvtRM-43" value="нет" style="text;html=1;align=center;verticalAlign=middle;whiteSpace=wrap;rounded=0;" parent="1" vertex="1">
          <mxGeometry x="305" y="1164" width="20" height="10" as="geometry" />
        </mxCell>
        <mxCell id="mmSBYy4YNqLgO61rvtRM-44" value="нет" style="text;html=1;align=center;verticalAlign=middle;whiteSpace=wrap;rounded=0;" parent="1" vertex="1">
          <mxGeometry x="224" y="958" width="20" height="10" as="geometry" />
        </mxCell>
        <mxCell id="mmSBYy4YNqLgO61rvtRM-45" value="нет" style="text;html=1;align=center;verticalAlign=middle;whiteSpace=wrap;rounded=0;" parent="1" vertex="1">
          <mxGeometry x="304" y="601" width="20" height="10" as="geometry" />
        </mxCell>
        <mxCell id="mmSBYy4YNqLgO61rvtRM-46" value="нет" style="text;html=1;align=center;verticalAlign=middle;whiteSpace=wrap;rounded=0;" parent="1" vertex="1">
          <mxGeometry x="305" y="197" width="20" height="10" as="geometry" />
        </mxCell>
        <mxCell id="mmSBYy4YNqLgO61rvtRM-50" style="edgeStyle=orthogonalEdgeStyle;rounded=0;orthogonalLoop=1;jettySize=auto;html=1;" parent="1" source="mmSBYy4YNqLgO61rvtRM-48" target="mmSBYy4YNqLgO61rvtRM-6" edge="1">
          <mxGeometry relative="1" as="geometry" />
        </mxCell>
        <mxCell id="mmSBYy4YNqLgO61rvtRM-48" value="found := False" style="rounded=0;whiteSpace=wrap;html=1;" parent="1" vertex="1">
          <mxGeometry x="175" y="100" width="140" height="60" as="geometry" />
        </mxCell>
        <mxCell id="mmSBYy4YNqLgO61rvtRM-51" value="" style="endArrow=none;dashed=1;html=1;rounded=0;" parent="1" source="mmSBYy4YNqLgO61rvtRM-3" target="mmSBYy4YNqLgO61rvtRM-52" edge="1">
          <mxGeometry width="50" height="50" relative="1" as="geometry">
            <mxPoint x="670" y="190" as="sourcePoint" />
            <mxPoint x="390" y="60" as="targetPoint" />
          </mxGeometry>
        </mxCell>
        <mxCell id="mmSBYy4YNqLgO61rvtRM-52" value="" style="shape=partialRectangle;whiteSpace=wrap;html=1;bottom=1;right=1;left=1;top=0;fillColor=none;routingCenterX=-0.5;rotation=90;" parent="1" vertex="1">
          <mxGeometry x="360" y="50" width="30" height="10" as="geometry" />
        </mxCell>
        <mxCell id="mmSBYy4YNqLgO61rvtRM-54" value="Заданные строки (ищем строку b в строке a)" style="text;html=1;align=left;verticalAlign=middle;whiteSpace=wrap;rounded=0;" parent="1" vertex="1">
          <mxGeometry x="380" y="40" width="146" height="30" as="geometry" />
        </mxCell>
        <mxCell id="mmSBYy4YNqLgO61rvtRM-55" value="" style="endArrow=none;dashed=1;html=1;rounded=0;" parent="1" target="mmSBYy4YNqLgO61rvtRM-56" edge="1">
          <mxGeometry width="50" height="50" relative="1" as="geometry">
            <mxPoint x="315" y="130" as="sourcePoint" />
            <mxPoint x="390" y="135" as="targetPoint" />
          </mxGeometry>
        </mxCell>
        <mxCell id="mmSBYy4YNqLgO61rvtRM-56" value="" style="shape=partialRectangle;whiteSpace=wrap;html=1;bottom=1;right=1;left=1;top=0;fillColor=none;routingCenterX=-0.5;rotation=90;" parent="1" vertex="1">
          <mxGeometry x="360" y="125" width="30" height="10" as="geometry" />
        </mxCell>
        <mxCell id="mmSBYy4YNqLgO61rvtRM-57" value="Переменная логического типа для указания нашлась ли строка b в строке a" style="text;html=1;align=left;verticalAlign=middle;whiteSpace=wrap;rounded=0;" parent="1" vertex="1">
          <mxGeometry x="380" y="115" width="240" height="30" as="geometry" />
        </mxCell>
        <mxCell id="mmSBYy4YNqLgO61rvtRM-60" value="" style="endArrow=none;dashed=1;html=1;rounded=0;" parent="1" target="mmSBYy4YNqLgO61rvtRM-61" edge="1">
          <mxGeometry width="50" height="50" relative="1" as="geometry">
            <mxPoint x="315" y="210" as="sourcePoint" />
            <mxPoint x="390" y="215" as="targetPoint" />
          </mxGeometry>
        </mxCell>
        <mxCell id="mmSBYy4YNqLgO61rvtRM-61" value="" style="shape=partialRectangle;whiteSpace=wrap;html=1;bottom=1;right=1;left=1;top=0;fillColor=none;routingCenterX=-0.5;rotation=90;" parent="1" vertex="1">
          <mxGeometry x="380" y="205" width="30" height="10" as="geometry" />
        </mxCell>
        <mxCell id="mmSBYy4YNqLgO61rvtRM-62" value="Если длина строки b больше длины строки a, то поиск не имеет смысла." style="text;html=1;align=left;verticalAlign=middle;whiteSpace=wrap;rounded=0;" parent="1" vertex="1">
          <mxGeometry x="400" y="195" width="240" height="30" as="geometry" />
        </mxCell>
        <mxCell id="mmSBYy4YNqLgO61rvtRM-63" value="" style="endArrow=none;dashed=1;html=1;rounded=0;" parent="1" target="mmSBYy4YNqLgO61rvtRM-64" edge="1">
          <mxGeometry width="50" height="50" relative="1" as="geometry">
            <mxPoint x="315" y="615" as="sourcePoint" />
            <mxPoint x="390" y="620" as="targetPoint" />
          </mxGeometry>
        </mxCell>
        <mxCell id="mmSBYy4YNqLgO61rvtRM-64" value="" style="shape=partialRectangle;whiteSpace=wrap;html=1;bottom=1;right=1;left=1;top=0;fillColor=none;routingCenterX=-0.5;rotation=90;" parent="1" vertex="1">
          <mxGeometry x="370" y="610" width="30" height="10" as="geometry" />
        </mxCell>
        <mxCell id="mmSBYy4YNqLgO61rvtRM-65" value="Сравнение символов" style="text;html=1;align=left;verticalAlign=middle;whiteSpace=wrap;rounded=0;" parent="1" vertex="1">
          <mxGeometry x="390" y="600" width="240" height="30" as="geometry" />
        </mxCell>
        <mxCell id="mmSBYy4YNqLgO61rvtRM-66" value="" style="endArrow=none;dashed=1;html=1;rounded=0;" parent="1" target="mmSBYy4YNqLgO61rvtRM-67" edge="1">
          <mxGeometry width="50" height="50" relative="1" as="geometry">
            <mxPoint x="315" y="450" as="sourcePoint" />
            <mxPoint x="390" y="455" as="targetPoint" />
          </mxGeometry>
        </mxCell>
        <mxCell id="mmSBYy4YNqLgO61rvtRM-67" value="" style="shape=partialRectangle;whiteSpace=wrap;html=1;bottom=1;right=1;left=1;top=0;fillColor=none;routingCenterX=-0.5;rotation=90;" parent="1" vertex="1">
          <mxGeometry x="380" y="445" width="30" height="10" as="geometry" />
        </mxCell>
        <mxCell id="mmSBYy4YNqLgO61rvtRM-68" value="found := True(предполагаем, что подстрока найдена)" style="text;html=1;align=left;verticalAlign=middle;whiteSpace=wrap;rounded=0;" parent="1" vertex="1">
          <mxGeometry x="400" y="435" width="240" height="30" as="geometry" />
        </mxCell>
        <mxCell id="mmSBYy4YNqLgO61rvtRM-69" value="" style="endArrow=none;dashed=1;html=1;rounded=0;" parent="1" target="mmSBYy4YNqLgO61rvtRM-70" edge="1">
          <mxGeometry width="50" height="50" relative="1" as="geometry">
            <mxPoint x="320" y="770" as="sourcePoint" />
            <mxPoint x="395" y="775" as="targetPoint" />
          </mxGeometry>
        </mxCell>
        <mxCell id="mmSBYy4YNqLgO61rvtRM-70" value="" style="shape=partialRectangle;whiteSpace=wrap;html=1;bottom=1;right=1;left=1;top=0;fillColor=none;routingCenterX=-0.5;rotation=90;" parent="1" vertex="1">
          <mxGeometry x="385" y="765" width="30" height="10" as="geometry" />
        </mxCell>
        <mxCell id="mmSBYy4YNqLgO61rvtRM-71" value="found := False(подстрока не найдена)" style="text;html=1;align=left;verticalAlign=middle;whiteSpace=wrap;rounded=0;" parent="1" vertex="1">
          <mxGeometry x="405" y="755" width="240" height="30" as="geometry" />
        </mxCell>
        <mxCell id="mmSBYy4YNqLgO61rvtRM-75" value="" style="endArrow=none;dashed=1;html=1;rounded=0;" parent="1" target="mmSBYy4YNqLgO61rvtRM-76" edge="1">
          <mxGeometry width="50" height="50" relative="1" as="geometry">
            <mxPoint x="320" y="930" as="sourcePoint" />
            <mxPoint x="395" y="935" as="targetPoint" />
          </mxGeometry>
        </mxCell>
        <mxCell id="mmSBYy4YNqLgO61rvtRM-76" value="" style="shape=partialRectangle;whiteSpace=wrap;html=1;bottom=1;right=1;left=1;top=0;fillColor=none;routingCenterX=-0.5;rotation=90;" parent="1" vertex="1">
          <mxGeometry x="385" y="925" width="30" height="10" as="geometry" />
        </mxCell>
        <mxCell id="mmSBYy4YNqLgO61rvtRM-77" value="Если подстрока найдена, то выходим из цикла" style="text;html=1;align=left;verticalAlign=middle;whiteSpace=wrap;rounded=0;" parent="1" vertex="1">
          <mxGeometry x="405" y="915" width="240" height="30" as="geometry" />
        </mxCell>
        <mxCell id="mmSBYy4YNqLgO61rvtRM-78" value="" style="endArrow=none;dashed=1;html=1;rounded=0;" parent="1" target="mmSBYy4YNqLgO61rvtRM-79" edge="1">
          <mxGeometry width="50" height="50" relative="1" as="geometry">
            <mxPoint x="315" y="370" as="sourcePoint" />
            <mxPoint x="390" y="375" as="targetPoint" />
          </mxGeometry>
        </mxCell>
        <mxCell id="mmSBYy4YNqLgO61rvtRM-79" value="" style="shape=partialRectangle;whiteSpace=wrap;html=1;bottom=1;right=1;left=1;top=0;fillColor=none;routingCenterX=-0.5;rotation=90;" parent="1" vertex="1">
          <mxGeometry x="380" y="365" width="30" height="10" as="geometry" />
        </mxCell>
        <mxCell id="mmSBYy4YNqLgO61rvtRM-80" value="Перебор значений от 0 до&amp;nbsp;&lt;span style=&quot;text-align: center;&quot;&gt;length(a) - length(b)&lt;/span&gt;" style="text;html=1;align=left;verticalAlign=middle;whiteSpace=wrap;rounded=0;" parent="1" vertex="1">
          <mxGeometry x="400" y="355" width="240" height="30" as="geometry" />
        </mxCell>
        <mxCell id="mmSBYy4YNqLgO61rvtRM-81" value="" style="endArrow=none;dashed=1;html=1;rounded=0;" parent="1" target="mmSBYy4YNqLgO61rvtRM-82" edge="1">
          <mxGeometry width="50" height="50" relative="1" as="geometry">
            <mxPoint x="315" y="530" as="sourcePoint" />
            <mxPoint x="390" y="535" as="targetPoint" />
          </mxGeometry>
        </mxCell>
        <mxCell id="mmSBYy4YNqLgO61rvtRM-82" value="" style="shape=partialRectangle;whiteSpace=wrap;html=1;bottom=1;right=1;left=1;top=0;fillColor=none;routingCenterX=-0.5;rotation=90;" parent="1" vertex="1">
          <mxGeometry x="380" y="525" width="30" height="10" as="geometry" />
        </mxCell>
        <mxCell id="mmSBYy4YNqLgO61rvtRM-83" value="Перебор значений от 1 до&amp;nbsp;&lt;span style=&quot;text-align: center;&quot;&gt;length(b)&lt;/span&gt;" style="text;html=1;align=left;verticalAlign=middle;whiteSpace=wrap;rounded=0;" parent="1" vertex="1">
          <mxGeometry x="400" y="515" width="240" height="30" as="geometry" />
        </mxCell>
        <mxCell id="mmSBYy4YNqLgO61rvtRM-86" style="edgeStyle=orthogonalEdgeStyle;rounded=0;orthogonalLoop=1;jettySize=auto;html=1;" parent="1" source="mmSBYy4YNqLgO61rvtRM-84" target="mmSBYy4YNqLgO61rvtRM-19" edge="1">
          <mxGeometry relative="1" as="geometry" />
        </mxCell>
        <mxCell id="mmSBYy4YNqLgO61rvtRM-84" value="found := False;" style="rounded=0;whiteSpace=wrap;html=1;" parent="1" vertex="1">
          <mxGeometry x="175" y="660" width="140" height="60" as="geometry" />
        </mxCell>
        <mxCell id="mmSBYy4YNqLgO61rvtRM-89" style="edgeStyle=orthogonalEdgeStyle;rounded=0;orthogonalLoop=1;jettySize=auto;html=1;" parent="1" source="mmSBYy4YNqLgO61rvtRM-87" target="mmSBYy4YNqLgO61rvtRM-26" edge="1">
          <mxGeometry relative="1" as="geometry" />
        </mxCell>
        <mxCell id="mmSBYy4YNqLgO61rvtRM-87" value="i += 1;" style="rounded=0;whiteSpace=wrap;html=1;" parent="1" vertex="1">
          <mxGeometry x="175" y="980" width="140" height="60" as="geometry" />
        </mxCell>
        <mxCell id="x3Iy4iVnlTO4qwPrki3_-1" value="ЗАДАЧА №56&lt;br&gt;Определите, является ли одна строка подстрокой другой" style="text;html=1;align=center;verticalAlign=middle;whiteSpace=wrap;rounded=0;" parent="1" vertex="1">
          <mxGeometry x="319" y="-60" width="200" height="30" as="geometry" />
        </mxCell>
      </root>
    </mxGraphModel>
  </diagram>
</mxfile>
